<svg width="400" height="118" viewBox="0 0 400 118" fill="none" xmlns="http://www.w3.org/2000/svg">
<path fill-rule="evenodd" clip-rule="evenodd" d="M62.083 50.068C61.992 50.102 61.367 50.295 60.696 50.497C53.863 52.553 50.263 60.588 53.252 67.112C54.207 69.197 54.877 70.014 57.751 72.598C58.967 73.692 60.557 75.129 63.266 77.583C63.368 77.675 64.113 78.35 64.922 79.083C65.732 79.817 66.587 80.595 66.822 80.813C67.058 81.031 67.737 81.601 68.333 82.079C68.929 82.557 70.039 83.544 70.8 84.271C71.561 84.999 72.206 85.572 72.234 85.544C72.262 85.516 72.596 85.831 72.976 86.243C73.356 86.655 73.667 86.945 73.667 86.887C73.667 86.828 74.136 87.224 74.709 87.765C76.412 89.374 85.685 97.74 85.905 97.867C86.099 97.978 86.923 97.278 89.596 94.729C90.185 94.167 90.667 93.726 90.667 93.75C90.667 93.773 91.212 93.257 91.879 92.604C92.546 91.951 94.027 90.545 95.171 89.479C96.314 88.413 97.813 87.015 98.5 86.372C99.188 85.729 100.076 84.913 100.473 84.56C102.496 82.762 103.365 81.794 103.14 81.59C103.017 81.48 101.379 79.971 99.501 78.237C90.383 69.82 86.449 66.138 85 64.663C84.129 63.776 82.329 62.053 81 60.833C79.671 59.613 78.093 58.158 77.494 57.599C71.1 51.635 70.926 51.503 68 50.413C67.309 50.156 62.588 49.881 62.083 50.068Z" fill="#ACB4C4"/>
<path fill-rule="evenodd" clip-rule="evenodd" d="M130.083 26.178C127.266 26.648 125.536 27.678 122.164 30.896C121.384 31.641 119.659 33.262 118.333 34.5C117.006 35.737 115.204 37.425 114.328 38.25C113.452 39.075 112.135 40.313 111.401 41C106.664 45.439 104.905 47.089 103.499 48.417C102.625 49.242 101.237 50.548 100.414 51.32C99.59 52.091 98.392 53.218 97.75 53.824C97.108 54.429 95.421 56.005 94 57.325C91.541 59.61 89.826 61.225 86.927 63.987L85.629 65.223L86.69 66.244C87.273 66.805 90.224 69.549 93.247 72.34C96.271 75.132 99.8 78.403 101.089 79.609L103.434 81.802L104.842 80.443C105.617 79.695 106.854 78.521 107.59 77.833C112.151 73.577 113.726 72.102 114.993 70.902C115.776 70.16 116.904 69.113 117.5 68.574C118.096 68.035 118.808 67.367 119.083 67.089C119.358 66.811 120.071 66.141 120.667 65.601C121.263 65.06 122.392 64.01 123.176 63.267C123.96 62.524 125.197 61.361 125.926 60.682C126.654 60.002 127.853 58.877 128.589 58.182C129.326 57.486 130.491 56.392 131.179 55.75C133.948 53.168 136.57 50.714 137.233 50.083C137.619 49.717 138.705 48.704 139.646 47.833C140.691 46.866 141.709 45.731 142.261 44.917C148.248 36.081 140.666 24.414 130.083 26.178ZM351.417 43.999C345.925 44.779 342.819 48.92 344.492 53.229C345.338 55.406 348.595 57.497 352.444 58.334C357.26 59.381 359.069 61.147 357.66 63.427C356.815 64.794 353.137 65.268 350.415 64.36C348.61 63.758 348.717 63.909 348.266 61.333L348.076 60.25L345.955 60.203L343.833 60.157V63.15V66.144L344.331 66.498C348.889 69.744 358.214 69.7 361.592 66.416C363.529 64.535 364.041 60.605 362.601 58.689C361.314 56.978 358.585 55.261 356.083 54.589C355.533 54.441 354.971 54.289 354.833 54.25C354.696 54.211 354.136 54.058 353.589 53.909C349.858 52.891 348.391 50.971 350.016 49.23C351.163 48.002 354.8 47.607 357.009 48.471L357.935 48.833L358.317 50.5L358.698 52.167H360.683H362.667L362.66 49.292L362.654 46.417L362.024 45.981C359.776 44.429 354.858 43.51 351.417 43.999ZM163.611 44.278C163.396 44.492 163.485 47.506 163.708 47.569C163.823 47.601 164.442 47.718 165.083 47.828C165.725 47.939 166.381 48.065 166.542 48.109C166.814 48.184 166.833 48.722 166.833 56.416V64.643L165.958 64.818C165.477 64.914 164.876 65.027 164.624 65.069C163.472 65.26 163.5 65.213 163.5 66.928V68.5H169.5H175.5V66.928C175.5 65.23 175.538 65.298 174.472 65.069C174.104 64.99 172.297 64.67 172.208 64.668C172.185 64.667 172.167 63.737 172.167 62.602V60.537L175.792 60.457C178.445 60.399 179.685 60.304 180.417 60.102C189.893 57.489 188.549 45.468 178.654 44.331C177.086 44.15 163.785 44.104 163.611 44.278ZM197.5 44.542C197.413 44.748 196.771 46.379 196.073 48.167C195.376 49.954 194.406 52.429 193.917 53.667C192.235 57.924 191.167 60.677 191.167 60.75C191.167 60.79 190.989 61.219 190.771 61.703C190.554 62.187 190.17 63.108 189.919 63.75C189.372 65.146 189.47 65.028 188.8 65.106C187.645 65.24 187.667 65.206 187.667 66.928V68.5H192.173H196.679L196.631 66.976L196.583 65.453L195.793 65.253C195.359 65.142 194.959 65.097 194.904 65.151C194.85 65.206 194.969 64.837 195.17 64.333C195.37 63.829 195.599 63.248 195.68 63.042L195.825 62.667H200.401H204.978L205.085 63.042C205.145 63.248 205.293 63.642 205.415 63.917C205.869 64.939 205.825 65.057 204.917 65.254L204.083 65.434L204.035 66.967L203.987 68.5H208.494H213V66.911C213 65.783 212.94 65.306 212.792 65.264C212.677 65.232 212.288 65.141 211.928 65.061C211.339 64.931 211.24 64.832 210.95 64.083C210.772 63.625 210.523 63.014 210.397 62.725C210.27 62.436 210.167 62.147 210.167 62.083C210.167 62.019 210.059 61.731 209.927 61.442C209.795 61.153 209.342 60.017 208.92 58.917C208.498 57.817 208.01 56.579 207.835 56.167C207.552 55.497 206.319 52.374 203.904 46.208L203.104 44.167H200.382C197.717 44.167 197.656 44.175 197.5 44.542ZM214.41 44.374C214.151 45.05 214.415 47.579 214.75 47.63C214.933 47.657 215.627 47.794 216.292 47.935L217.5 48.189V56.42V64.652L216.875 64.756C216.531 64.814 216.025 64.923 215.75 64.999C215.475 65.075 215.044 65.182 214.792 65.238L214.333 65.34V66.92V68.5H220.25H226.167V66.927C226.167 65.197 226.189 65.243 225.267 65.097C224.91 65.04 224.422 64.953 224.184 64.903C223.945 64.853 223.581 64.778 223.375 64.736C223.004 64.661 223 64.629 223 61.909V59.157L225.287 59.204L227.573 59.25L228.376 61.25C228.818 62.35 229.229 63.362 229.29 63.5C229.351 63.637 229.83 64.8 230.356 66.083L231.312 68.417L234.489 68.462L237.667 68.507V67.024C237.667 65.418 237.586 65.249 236.745 65.097C235.45 64.863 235.428 64.848 235.009 63.869C234.785 63.345 234.249 62.167 233.82 61.25C232.279 57.964 232.321 58.171 233.127 57.785C234.837 56.965 236.209 54.996 236.536 52.892C237.157 48.896 234.971 45.804 230.692 44.627C229.025 44.169 214.575 43.944 214.41 44.374ZM239.446 44.277C239.384 44.338 239.333 45.989 239.333 47.944V51.5H241.497C243.989 51.5 243.799 51.653 243.874 49.583L243.917 48.417H246.083H248.25L248.293 56.517L248.336 64.617L246.71 64.934L245.083 65.25L245.036 66.875L244.988 68.5H250.917H256.845L256.798 66.878L256.75 65.257L255.833 65.063C255.329 64.956 254.637 64.82 254.295 64.761L253.673 64.653L253.628 56.493L253.583 48.333H255.792C257.779 48.333 258.001 48.363 258.013 48.625C258.037 49.166 258.168 50.413 258.259 50.958L258.348 51.5H260.511H262.673L262.628 47.875L262.583 44.25L251.071 44.207C244.739 44.184 239.507 44.215 239.446 44.277ZM264.203 45.873C264.246 47.432 264.279 47.584 264.583 47.632C264.767 47.661 265.46 47.801 266.125 47.943L267.333 48.2V56.422V64.643L266.375 64.837C265.848 64.944 265.154 65.084 264.833 65.148L264.25 65.264L264.202 66.882L264.155 68.5H270.077H276V66.927C276 65.213 276.013 65.242 275.167 65.105C274.082 64.93 272.776 64.665 272.719 64.608C272.688 64.577 272.682 61.793 272.706 58.421L272.75 52.29L273.658 53.687C275.248 56.135 278.096 60.463 280.796 64.539L283.417 68.494L286.125 68.497L288.833 68.5V58.337V48.173L289.208 48.093C289.415 48.049 290.167 47.89 290.881 47.739L292.178 47.464L292.131 45.857L292.083 44.25L286.136 44.206L280.189 44.162L280.136 45.827L280.083 47.491L280.917 47.664C281.375 47.76 282.144 47.924 282.625 48.029L283.5 48.22V54.277C283.5 57.608 283.463 60.333 283.419 60.333C283.337 60.333 279.232 54.147 278.499 52.917C278.28 52.55 278.05 52.212 277.987 52.167C277.925 52.121 276.893 50.583 275.695 48.75C274.496 46.917 273.32 45.135 273.081 44.792L272.645 44.167H268.4H264.155L264.203 45.873ZM293.833 45.822C293.833 47.638 293.766 47.526 295 47.746C295.321 47.803 295.94 47.928 296.375 48.025L297.167 48.2V56.433C297.167 60.962 297.139 64.667 297.106 64.667C297.073 64.667 296.642 64.744 296.148 64.839C295.654 64.934 294.987 65.054 294.667 65.105C293.82 65.242 293.833 65.213 293.833 66.927V68.5H304.25H314.667V64.917V61.333H312.5H310.333V61.892C310.333 62.2 310.285 62.912 310.226 63.476L310.119 64.5H306.31H302.5V61.253V58.005L307.292 57.961L312.083 57.917L312.13 56.042L312.178 54.167H307.339H302.5V51.25V48.333H306.333H310.167L310.175 48.958C310.185 49.685 310.323 50.99 310.421 51.292C310.471 51.444 311.055 51.5 312.578 51.5H314.667V47.833V44.167H304.25H293.833V45.822ZM317.833 45.839C317.833 47.035 317.893 47.527 318.042 47.568C318.297 47.637 319.72 47.944 320.458 48.088L321 48.193V56.427V64.66L320.625 64.741C320.419 64.785 319.725 64.918 319.083 65.036L317.917 65.25L317.869 66.875L317.821 68.5H323.744H329.667V67.02C329.667 65.422 329.585 65.249 328.757 65.099C328.491 65.051 327.875 64.928 327.387 64.827L326.5 64.643V61.9V59.157L328.767 59.204L331.035 59.25L331.619 60.75C331.94 61.575 332.32 62.512 332.463 62.833C332.606 63.154 333.183 64.542 333.746 65.917L334.77 68.417L337.968 68.462L341.167 68.507V67.024C341.167 65.43 341.042 65.162 340.26 65.076C338.94 64.931 338.913 64.908 338.166 63.199C337.778 62.311 337.174 60.98 336.825 60.243C335.852 58.188 335.851 58.155 336.752 57.681C341.063 55.411 341.264 48.662 337.104 45.911C334.809 44.393 333.15 44.167 324.34 44.167H317.833V45.839ZM178.909 48.678C181.596 49.683 182.321 53.141 180.271 55.17C179.251 56.18 178.574 56.333 175.137 56.333H172.167V52.327V48.321L175.115 48.341C177.568 48.358 178.206 48.415 178.909 48.678ZM229.082 48.678C231.921 49.739 232.027 53.78 229.245 54.821C228.447 55.119 227.945 55.167 225.577 55.167H222.833V51.861C222.833 50.043 222.886 48.502 222.951 48.437C223.228 48.161 228.224 48.357 229.082 48.678ZM332.55 48.668C335.219 49.667 335.497 53.425 333 54.763C332.505 55.029 331.955 55.086 329.375 55.137L326.333 55.198V51.877C326.333 50.05 326.383 48.506 326.444 48.444C326.737 48.151 331.65 48.332 332.55 48.668ZM202.403 55.669C203.006 57.275 203.5 58.644 203.5 58.711C203.5 58.778 202.077 58.833 200.337 58.833H197.174L197.332 58.458C197.419 58.252 198.065 56.508 198.767 54.583C199.468 52.658 200.114 50.896 200.201 50.667C200.377 50.201 200.177 49.746 202.403 55.669Z" fill="#ACB4C4"/>
<path fill-rule="evenodd" clip-rule="evenodd" d="M149.083 10.266C146.087 10.971 144.328 12.095 142.39 14.543C139.147 18.641 140.539 25.84 145.17 28.919C153.87 34.702 164.58 25.166 159.961 15.75C158.086 11.927 152.977 9.35099 149.083 10.266ZM132.042 25.948C132.202 25.99 132.465 25.99 132.625 25.948C132.785 25.906 132.654 25.872 132.333 25.872C132.012 25.872 131.881 25.906 132.042 25.948ZM42.699 34.341C33.124 36.502 31.928 49.935 40.972 53.738C45.545 55.661 51.271 53.83 53.738 49.656C58.358 41.84 51.518 32.35 42.699 34.341ZM293.728 45.75C293.728 46.667 293.756 47.02 293.79 46.536C293.824 46.052 293.823 45.302 293.789 44.869C293.755 44.437 293.727 44.833 293.728 45.75ZM173.458 48.457C174.215 48.488 175.452 48.488 176.208 48.457C176.965 48.426 176.346 48.401 174.833 48.401C173.321 48.401 172.702 48.426 173.458 48.457ZM224.125 48.457C224.79 48.489 225.877 48.489 226.542 48.457C227.206 48.425 226.662 48.4 225.333 48.4C224.004 48.4 223.46 48.425 224.125 48.457ZM245.049 48.457C245.671 48.489 246.646 48.489 247.215 48.457C247.784 48.424 247.275 48.398 246.083 48.398C244.892 48.398 244.426 48.425 245.049 48.457ZM254.708 48.457C255.327 48.489 256.34 48.489 256.958 48.457C257.577 48.425 257.071 48.399 255.833 48.399C254.596 48.399 254.09 48.425 254.708 48.457ZM304.375 48.458C305.452 48.487 307.215 48.487 308.292 48.458C309.369 48.429 308.487 48.405 306.333 48.405C304.179 48.405 303.298 48.429 304.375 48.458ZM327.542 48.457C328.16 48.489 329.173 48.489 329.792 48.457C330.41 48.425 329.904 48.399 328.667 48.399C327.429 48.399 326.923 48.425 327.542 48.457ZM293.727 67C293.727 67.871 293.755 68.227 293.789 67.792C293.824 67.356 293.824 66.644 293.789 66.208C293.755 65.773 293.727 66.129 293.727 67ZM276.583 77.771C273.575 78.241 271.457 80.065 271.217 82.391C270.902 85.442 272.94 87.486 277.392 88.586C281.47 89.594 283.299 90.674 283.594 92.249C284.281 95.91 279.291 97.65 274.085 95.565C272.898 95.091 272.833 94.96 272.833 93.063V92H271.828H270.823L270.87 94.125L270.917 96.25L271.789 96.718C278.274 100.193 286.564 97.699 285.943 92.46C285.594 89.517 283.01 87.715 277.25 86.399C271.443 85.071 272.376 79.75 278.417 79.75C282.053 79.75 283.07 80.319 283.269 82.464L283.381 83.667H284.357H285.333V81.81C285.333 79.705 285.405 79.833 283.75 78.97C281.836 77.971 278.681 77.444 276.583 77.771ZM164.5 80.667V83.333H165.5H166.5V81.583V79.833H169.333H172.167V87.975V96.117L170.825 96.221C169.172 96.348 169.167 96.351 169.167 97.26V98H173.083H177V97.189V96.379L176.227 96.273C175.801 96.214 175.201 96.167 174.893 96.167H174.333V88V79.833H177.167H180V81.583V83.333H181H182V80.667V78H173.25H164.5V80.667ZM183.833 78.812C183.833 79.715 184.049 79.827 185.792 79.831L186.5 79.833V87.978V96.124L185.167 96.24L183.833 96.356V97.178V98H187.75H191.667V97.19V96.38L190.792 96.275C190.31 96.217 189.673 96.169 189.375 96.168L188.833 96.167V92.75V89.333H191.759H194.685L195.023 90.125C195.209 90.56 195.467 91.153 195.597 91.442C195.727 91.731 195.833 92.013 195.833 92.069C195.833 92.125 195.979 92.488 196.156 92.877C196.334 93.265 196.883 94.558 197.377 95.75L198.275 97.917L200.138 97.964L202 98.011V97.194V96.376L201 96.263C200.003 96.151 200 96.148 199.649 95.367C198.977 93.867 198.846 93.57 197.86 91.302L196.868 89.021L197.682 88.728C201.861 87.225 202.216 81.157 198.26 78.857C197.054 78.156 195.564 78.012 189.458 78.006L183.833 78V78.812ZM203.333 78.812C203.333 79.714 203.55 79.827 205.281 79.831L205.979 79.833L206.031 86.292C206.094 94.046 206.11 94.126 207.991 96.011C211.348 99.374 218.708 99.027 221.383 95.379C222.599 93.719 222.667 93.233 222.667 86.139V79.833H223.31C223.664 79.833 224.301 79.786 224.727 79.727L225.5 79.621V78.811V78H221.583H217.667V78.812C217.667 79.715 217.882 79.827 219.625 79.831L220.333 79.833L220.326 86.125C220.32 90.944 220.266 92.563 220.096 93.042C218.522 97.451 210.756 97.613 208.738 93.279L208.337 92.417L208.335 86.125L208.333 79.833L209.042 79.831C210.785 79.827 211 79.715 211 78.812V78H207.167H203.333V78.812ZM227.5 80.667V83.333H228.5H229.5V82.608C229.5 82.209 229.548 81.421 229.607 80.858L229.714 79.833H232.357H235V88V96.167H234.44C234.132 96.167 233.532 96.214 233.107 96.273L232.333 96.379V97.189V98H236.25H240.167V97.19V96.38L239.292 96.275C238.81 96.217 238.173 96.169 237.875 96.168L237.333 96.167V88V79.833H240.167H243V81.583V83.333H244.083H245.167V80.667V78H236.333H227.5V80.667ZM246.833 78.811V79.621L247.607 79.727C248.032 79.786 248.669 79.833 249.023 79.833H249.667V88V96.167L249.125 96.168C248.827 96.169 248.19 96.217 247.708 96.275L246.833 96.38V97.19V98H250.75H254.667V97.19V96.38L253.792 96.275C253.31 96.217 252.673 96.169 252.375 96.168L251.833 96.167V92.667V89.167H257.5H263.167V92.667V96.167L262.625 96.168C262.327 96.169 261.69 96.217 261.208 96.275L260.333 96.38V97.19V98H264.25H268.167V97.19V96.38L267.292 96.275C266.81 96.217 266.173 96.169 265.875 96.168L265.333 96.167V88V79.833L266.125 79.831C267.957 79.827 268.167 79.723 268.167 78.812V78H264.25H260.333V78.811V79.621L261.107 79.727C261.532 79.786 262.169 79.833 262.523 79.833H263.167V83.5V87.167H257.5H251.833V83.5V79.833L252.625 79.831C254.457 79.827 254.667 79.723 254.667 78.812V78H250.75H246.833V78.811ZM196.684 80.358C198.658 81.277 199.381 83.704 198.28 85.712C197.521 87.094 195.948 87.496 191.292 87.499L188.833 87.5V83.65V79.8L192.292 79.861C195.606 79.919 195.789 79.94 196.684 80.358Z" fill="#ACB4C4"/>
<path fill-rule="evenodd" clip-rule="evenodd" d="M95.167 74.219C95.167 74.248 95.41 74.491 95.708 74.76L96.25 75.25L95.76 74.708C95.304 74.203 95.167 74.09 95.167 74.219ZM68.667 82.385C68.667 82.414 68.91 82.658 69.208 82.927L69.75 83.417L69.26 82.875C68.804 82.37 68.667 82.257 68.667 82.385ZM69.917 83.606C70.008 83.687 70.346 83.977 70.666 84.251L71.249 84.75L70.833 84.276C70.604 84.016 70.267 83.725 70.083 83.631C69.9 83.536 69.825 83.525 69.917 83.606ZM72.167 85.552C72.167 85.581 72.41 85.825 72.708 86.094L73.25 86.583L72.76 86.042C72.304 85.537 72.167 85.423 72.167 85.552ZM77.667 90.583C77.978 90.904 78.27 91.167 78.315 91.167C78.361 91.167 78.144 90.904 77.833 90.583C77.522 90.263 77.23 90 77.185 90C77.139 90 77.356 90.263 77.667 90.583ZM78.847 91.625C78.855 91.694 79.174 92.009 79.556 92.326L80.25 92.901L79.591 92.201C78.914 91.48 78.823 91.41 78.847 91.625ZM92.073 92.375L91.583 92.917L92.125 92.427C92.423 92.158 92.667 91.914 92.667 91.885C92.667 91.757 92.529 91.87 92.073 92.375ZM81.417 94C81.775 94.367 82.105 94.667 82.151 94.667C82.197 94.667 81.941 94.367 81.583 94C81.225 93.633 80.895 93.333 80.849 93.333C80.803 93.333 81.059 93.633 81.417 94ZM83.167 95.583C83.478 95.904 83.77 96.167 83.815 96.167C83.861 96.167 83.644 95.904 83.333 95.583C83.022 95.263 82.73 95 82.685 95C82.639 95 82.856 95.263 83.167 95.583ZM84.333 96.552C84.333 96.581 84.577 96.825 84.875 97.094L85.417 97.583L84.927 97.042C84.471 96.537 84.333 96.423 84.333 96.552Z" fill="#ACB4C4"/>
<path fill-rule="evenodd" clip-rule="evenodd" d="M118.909 33.875L118.25 34.583L118.958 33.925C119.617 33.312 119.743 33.167 119.617 33.167C119.59 33.167 119.271 33.485 118.909 33.875ZM116.24 36.375L115.75 36.917L116.292 36.427C116.59 36.158 116.833 35.914 116.833 35.885C116.833 35.757 116.696 35.87 116.24 36.375ZM113.409 39.042L112.75 39.75L113.458 39.091C114.117 38.478 114.243 38.333 114.117 38.333C114.09 38.333 113.771 38.652 113.409 39.042ZM228.294 44.285C228.501 44.324 228.801 44.323 228.96 44.281C229.12 44.239 228.95 44.207 228.583 44.209C228.217 44.211 228.086 44.245 228.294 44.285ZM264.028 45.782C264.013 46.716 264.056 47.515 264.125 47.558C264.194 47.601 264.23 47.099 264.204 46.443C264.123 44.299 264.057 44.052 264.028 45.782ZM280.061 45.75C280.061 46.667 280.089 47.02 280.123 46.536C280.157 46.052 280.156 45.302 280.122 44.869C280.088 44.437 280.06 44.833 280.061 45.75ZM331.794 44.285C332.001 44.324 332.301 44.323 332.46 44.281C332.62 44.239 332.45 44.207 332.083 44.209C331.717 44.211 331.586 44.245 331.794 44.285ZM105.406 46.542L104.917 47.083L105.458 46.594C105.756 46.325 106 46.081 106 46.052C106 45.923 105.862 46.037 105.406 46.542ZM345.74 46.542L345.25 47.083L345.792 46.594C346.297 46.138 346.41 46 346.281 46C346.252 46 346.009 46.244 345.74 46.542ZM362.735 49.333C362.735 50.938 362.76 51.594 362.791 50.792C362.821 49.99 362.821 48.677 362.791 47.875C362.76 47.073 362.735 47.729 362.735 49.333ZM283.371 54.052C283.341 58.774 283.29 59.994 283.125 59.895C283.005 59.823 283.023 59.9 283.167 60.077C283.449 60.425 283.556 57.128 283.458 51.114C283.431 49.447 283.392 50.769 283.371 54.052ZM297.077 56.417C297.077 61 297.099 62.851 297.125 60.53C297.151 58.209 297.151 54.459 297.125 52.197C297.099 49.934 297.077 51.833 297.077 56.417ZM222.904 51.833C222.904 53.712 222.928 54.481 222.958 53.542C222.987 52.602 222.987 51.065 222.958 50.125C222.928 49.185 222.904 49.954 222.904 51.833ZM248.244 56.583C248.244 61.075 248.265 62.889 248.292 60.613C248.318 58.338 248.318 54.663 248.291 52.447C248.265 50.23 248.244 52.092 248.244 56.583ZM326.404 51.833C326.404 53.712 326.428 54.481 326.458 53.542C326.487 52.602 326.487 51.065 326.458 50.125C326.428 49.185 326.404 49.954 326.404 51.833ZM99.906 51.708L99.417 52.25L99.958 51.76C100.256 51.491 100.5 51.248 100.5 51.219C100.5 51.09 100.362 51.203 99.906 51.708ZM240.375 51.624C240.994 51.656 242.006 51.656 242.625 51.624C243.244 51.592 242.737 51.565 241.5 51.565C240.262 51.565 239.756 51.592 240.375 51.624ZM259.375 51.624C259.994 51.656 261.006 51.656 261.625 51.624C262.244 51.592 261.737 51.565 260.5 51.565C259.262 51.565 258.756 51.592 259.375 51.624ZM272.667 58.5C272.667 61.922 272.702 64.686 272.746 64.643C272.858 64.531 272.87 52.481 272.758 52.369C272.708 52.319 272.667 55.078 272.667 58.5ZM97.409 54.042L96.75 54.75L97.458 54.091C98.117 53.478 98.243 53.333 98.117 53.333C98.09 53.333 97.771 53.652 97.409 54.042ZM94.491 56.792L93.917 57.417L94.542 56.842C95.123 56.308 95.243 56.167 95.116 56.167C95.088 56.167 94.807 56.448 94.491 56.792ZM129.24 57.542L128.75 58.083L129.292 57.594C129.59 57.325 129.833 57.081 129.833 57.052C129.833 56.923 129.696 57.037 129.24 57.542ZM223.667 59.278C225.456 59.399 227.63 59.407 227.558 59.292C227.515 59.223 226.454 59.18 225.198 59.197C223.943 59.213 223.254 59.25 223.667 59.278ZM327.167 59.278C328.956 59.399 331.13 59.407 331.058 59.292C331.015 59.223 329.954 59.18 328.698 59.197C327.443 59.213 326.754 59.25 327.167 59.278ZM344.583 60.11C346.167 60.231 348.13 60.24 348.058 60.125C348.015 60.056 347.066 60.013 345.948 60.029C344.831 60.045 344.217 60.081 344.583 60.11ZM304.375 64.458C305.452 64.487 307.215 64.487 308.292 64.458C309.369 64.429 308.487 64.405 306.333 64.405C304.179 64.405 303.298 64.429 304.375 64.458ZM256.832 66.883L256.914 68.583L256.964 67.015C256.991 66.152 256.954 65.387 256.882 65.314C256.809 65.241 256.787 65.947 256.832 66.883ZM264.071 65.388C264.024 65.51 264.009 66.279 264.036 67.097L264.086 68.583L264.168 66.875C264.249 65.18 264.235 64.961 264.071 65.388ZM275.999 66.883L276.081 68.583L276.131 67.015C276.158 66.152 276.121 65.387 276.048 65.314C275.976 65.241 275.954 65.947 275.999 66.883Z" fill="#ACB4C4"/>
</svg>
